:FULLY-SPECIFIED
:FORCE-ALL-JOINTS-BE-3DOF
:DEGREES
510
root -4.94004 15.0786 -42.3653 5.74565 -1.60323 -13.1001
lfemur -53.6651 37.4183 -15.8669
ltibia 72.3565 -0 0
lfoot -24.5163 31.9251 -0.245226
ltoes 11.4726 -0 0
rfemur -16.8921 -13.316 5.81085
rtibia 54.9846 -0 0
rfoot 6.63441 -17.4681 -0.624021
rtoes 8.8897 -0 0
lowerback 15.537 0.88668 -5.0259
upperback -1.30825 0.618339 3.84966
thorax -10.3086 0.714677 6.94478
lowerneck 4.15506 -14.9674 -17.213
upperneck 3.905 -21.8659 20.1738
head 4.73816 -11.0399 7.69337
lclavicle -3.85642e-14 -7.95139e-15 0
lhumerus -10.2196 -65.3928 102.209
lradius 83.1544 -0 0
lwrist 30.8533 0 0
lhand -5.5204 38.039 -0.36015
lfingers 7.12502 -0 0
lthumb 20.2823 66.8207 -0.386957
rclavicle -3.85642e-14 -7.95139e-15 0
rhumerus 64.5593 35.8152 -21.0977
rradius 109.418 -0 0
rwrist -27.4038 0 0
rhand 5.30265 -15.6743 -0.0594079
rfingers 7.12502 -0 0
rthumb 30.6438 -43.0104 -0.00746453
511
root -5.00565 15.0727 -42.4048 5.61408 -5.26996 -12.6514
lfemur -50.3552 36.3465 -13.6551
ltibia 71.8178 -0 0
lfoot -24.0038 30.786 -0.290015
ltoes 9.11303 -0 0
rfemur -18.5591 -13.967 5.58761
rtibia 55.324 -0 0
rfoot 5.67121 -15.9269 -0.738285
rtoes 7.69291 -0 0
lowerback 15.7351 0.969917 -5.24681
upperback -1.22865 0.661971 3.70509
thorax -10.3418 0.741221 6.90039
lowerneck 3.66101 -14.6652 -17.1671
upperneck 4.52787 -21.4165 19.5869
head 4.85534 -10.7895 7.53187
lclavicle -3.85642e-14 -7.95139e-15 0
lhumerus -16.6377 -62.4166 106.263
lradius 84.5727 -0 0
lwrist 33.2524 0 0
lhand -6.68903 38.7726 -0.425962
lfingers 7.12502 -0 0
lthumb 19.1569 67.6391 -0.457672
rclavicle -3.85642e-14 -7.95139e-15 0
rhumerus 59.4009 36.5395 -23.7153
rradius 109.858 -0 0
rwrist -27.7982 0 0
rhand 6.05714 -15.8618 -0.0702434
rfingers 7.12502 -0 0
rthumb 31.36 -43.0352 -0.00882582
512
root -5.06573 15.0662 -42.44 5.44262 -9.13691 -12.1648
lfemur -46.971 35.1088 -11.4412
ltibia 71.2494 -0 0
lfoot -23.4622 29.5839 -0.326209
ltoes 6.6238 -0 0
rfemur -20.3201 -14.6602 5.37273
rtibia 55.682 -0 0
rfoot 4.65213 -14.2992 -0.830686
rtoes 6.43037 -0 0
lowerback 15.9438 1.05855 -5.47954
upperback -1.1448 0.708217 3.55265
thorax -10.3767 0.769195 6.85354
lowerneck 3.14082 -14.3461 -17.1217
upperneck 5.17753 -20.9361 18.9755
head 4.97808 -10.525 7.3622
lclavicle -3.85642e-14 -7.95139e-15 0
lhumerus -22.318 -59.0967 109.414
lradius 86.0689 -0 0
lwrist 35.7832 0 0
lhand -7.92268 39.5479 -0.479152
lfingers 7.12502 -0 0
lthumb 17.9686 68.5039 -0.514824
rclavicle -3.85642e-14 -7.95139e-15 0
rhumerus 53.8746 37.0928 -26.5763
rradius 110.321 -0 0
rwrist -28.2143 0 0
rhand 6.85311 -16.0599 -0.0789961
rfingers 7.12502 -0 0
rthumb 32.1155 -43.0614 -0.0099254
513
root -5.12047 15.0593 -42.471 5.22693 -13.1431 -11.641
lfemur -43.5813 33.7182 -9.27918
ltibia 70.6603 -0 0
lfoot -22.9002 28.3377 -0.351722
ltoes 4.04382 -0 0
rfemur -22.1486 -15.3851 5.17269
rtibia 56.0531 -0 0
rfoot 3.59354 -12.6106 -0.895855
rtoes 5.1218 -0 0
lowerback 16.1596 1.15132 -5.72043
upperback -1.05802 0.756385 3.39471
thorax -10.413 0.798159 6.80496
lowerneck 2.60271 -14.0149 -17.0779
upperneck 5.84288 -20.4313 18.35
head 5.10434 -10.2505 7.1871
lclavicle -3.85642e-14 -7.95139e-15 0
lhumerus -27.331 -55.5227 111.762
lradius 87.6196 -0 0
lwrist 38.4064 0 0
lhand -9.20196 40.3524 -0.516649
lfingers 7.12502 -0 0
lthumb 16.7362 69.4012 -0.555115
rclavicle -3.85642e-14 -7.95139e-15 0
rhumerus 48.0836 37.4293 -29.6155
rradius 110.801 -0 0
rwrist -28.6455 0 0
rhand 7.67813 -16.2652 -0.085164
rfingers 7.12502 -0 0
rthumb 32.8985 -43.0886 -0.0107002
514
root -5.17003 15.052 -42.4983 4.96318 -17.2276 -11.0802
lfemur -40.2464 32.1953 -7.21362
ltibia 70.0593 -0 0
lfoot -22.3265 27.0662 -0.365146
ltoes 1.41198 -0 0
rfemur -24.0178 -16.1306 4.99281
rtibia 56.4317 -0 0
rfoot 2.51216 -10.8871 -0.930157
rtoes 3.78693 -0 0
lowerback 16.3794 1.24688 -5.9658
upperback -0.969629 0.805767 3.23368
thorax -10.4501 0.827673 6.75538
lowerneck 2.05484 -13.6767 -17.0365
upperneck 6.5133 -19.9095 17.7205
head 5.23215 -9.97003 7.00927
lclavicle -3.85642e-14 -7.95139e-15 0
lhumerus -31.7725 -51.7829 113.431
lradius 89.2015 -0 0
lwrist 41.0823 0 0
lhand -10.5074 41.1737 -0.536381
lfingers 7.12502 -0 0
lthumb 15.4785 70.3173 -0.576317
rclavicle -3.85642e-14 -7.95139e-15 0
rhumerus 42.1446 37.5186 -32.7525
rradius 111.291 -0 0
rwrist -29.0854 0 0
rhand 8.51975 -16.4747 -0.0884088
rfingers 7.12502 -0 0
rthumb 33.6973 -43.1163 -0.0111079
515
root -5.21459 15.0445 -42.5219 4.64823 -21.3295 -10.482
lfemur -37.017 30.5677 -5.27946
ltibia 69.4554 -0 0
lfoot -21.7498 25.7884 -0.365808
ltoes -1.23282 0 0
rfemur -25.9011 -16.885 4.83704
rtibia 56.8121 -0 0
rfoot 1.4249 -9.15483 -0.931849
rtoes 2.44548 -0 0
lowerback 16.5999 1.34385 -6.21202
upperback -0.880945 0.855642 3.07193
thorax -10.4873 0.857301 6.70555
lowerneck 1.50531 -13.3364 -16.9984
upperneck 7.17865 -19.3783 17.0966
head 5.35959 -9.68782 6.83136
lclavicle -3.85642e-14 -7.95139e-15 0
lhumerus -35.7343 -47.9622 114.541
lradius 90.7912 -0 0
lwrist 43.7713 0 0
lhand -11.8194 41.9994 -0.537354
lfingers 7.12502 -0 0
lthumb 14.2145 71.2381 -0.577363
rclavicle -3.85642e-14 -7.95139e-15 0
rhumerus 36.1824 37.3484 -35.898
rradius 111.784 -0 0
rwrist -29.5275 0 0
rhand 9.36552 -16.6853 -0.0885688
rfingers 7.12502 -0 0
rthumb 34.5 -43.1442 -0.011128
516
root -5.25435 15.037 -42.5421 4.27998 -25.3877 -9.84657
lfemur -33.9354 28.8686 -3.50179
ltibia 68.8574 -0 0
lfoot -21.1789 24.5231 -0.353792
ltoes -3.8517 0 0
rfemur -27.7714 -17.6365 4.70788
rtibia 57.1888 -0 0
rfoot 0.348748 -7.43978 -0.901143
rtoes 1.11718 -0 0
lowerback 16.8179 1.44081 -6.45547
upperback -0.793268 0.905274 2.91183
thorax -10.5242 0.886606 6.65618
lowerneck 0.962153 -12.9991 -16.9639
upperneck 7.8293 -18.8456 16.4872
head 5.4848 -9.40799 6.65596
lclavicle -3.85642e-14 -7.95139e-15 0
lhumerus -39.2926 -44.1407 115.203
lradius 92.3653 -0 0
lwrist 46.434 0 0
lhand -13.1184 42.8167 -0.519691
lfingers 7.12502 -0 0
lthumb 12.963 72.1497 -0.558384
rclavicle -3.85642e-14 -7.95139e-15 0
rhumerus 30.322 36.926 -38.9621
rradius 112.272 -0 0
rwrist -29.9652 0 0
rhand 10.203 -16.8938 -0.0856643
rfingers 7.12502 -0 0
rthumb 35.2949 -43.1718 -0.0107631
517
root -5.28946 15.0296 -42.5592 3.85794 -29.3415 -9.17528
lfemur -31.0359 27.1352 -1.89675
ltibia 68.2742 -0 0
lfoot -20.6224 23.2894 -0.329934
ltoes -6.40575 0 0
rfemur -29.6014 -18.3729 4.60634
rtibia 57.5561 -0 0
rfoot -0.699417 -5.76805 -0.840199
rtoes -0.178236 0 0
lowerback 17.03 1.53626 -6.69255
upperback -0.707894 0.953914 2.75578
thorax -10.5602 0.915155 6.60801
lowerneck 0.433338 -12.6699 -16.9335
upperneck 8.45609 -18.3199 15.9009
head 5.60598 -9.13472 6.48564
lclavicle -3.85642e-14 -7.95139e-15 0
lhumerus -42.5044 -40.3939 115.51
lradius 93.9004 -0 0
lwrist 49.0308 0 0
lhand -14.3849 43.6132 -0.484627
lfingers 7.12502 -0 0
lthumb 11.743 73.0381 -0.520706
rclavicle -3.85642e-14 -7.95139e-15 0
rhumerus 24.6811 36.2774 -41.8632
rradius 112.747 -0 0
rwrist -30.3921 0 0
rhand 11.0197 -17.0971 -0.0798967
rfingers 7.12502 -0 0
rthumb 36.0701 -43.1987 -0.0100385
518
root -5.32012 15.0223 -42.5735 3.3842 -33.1301 -8.47169
lfemur -28.3469 25.408 -0.472729
ltibia 67.7147 -0 0
lfoot -20.0892 22.106 -0.295792
ltoes -8.85608 0 0
rfemur -31.3633 -19.0819 4.53195
rtibia 57.9086 -0 0
rfoot -1.70292 -4.16553 -0.753028
rtoes -1.42105 0 0
lowerback 17.2332 1.62865 -6.91967
upperback -0.62611 1.0008 2.60612
thorax -10.5948 0.942516 6.56179
lowerneck -0.0731998 -12.3538 -16.9074
upperneck 9.05032 -17.8098 15.3458
head 5.72138 -8.87222 6.3229
lclavicle -3.85642e-14 -7.95139e-15 0
lhumerus -45.4081 -36.7927 115.543
lradius 95.3732 -0 0
lwrist 51.5221 0 0
lhand -15.5993 44.3765 -0.43445
lfingers 7.12502 -0 0
lthumb 10.5731 73.8896 -0.466792
rclavicle -3.85642e-14 -7.95139e-15 0
rhumerus 19.364 35.4445 -44.5344
rradius 113.203 -0 0
rwrist -30.8017 0 0
rhand 11.8033 -17.292 -0.0716405
rfingers 7.12502 -0 0
rthumb 36.8138 -43.2245 -0.00900133
519
root -5.34651 15.0155 -42.5852 2.86463 -36.6932 -7.74306
lfemur -25.8922 23.7289 0.768016
ltibia 67.1877 -0 0
lfoot -19.5878 20.9919 -0.253575
ltoes -11.1638 0 0
rfemur -33.0289 -19.7514 4.48279
rtibia 58.2405 -0 0
rfoot -2.64542 -2.65793 -0.645313
rtoes -2.59153 0 0
lowerback 17.4242 1.71641 -7.13328
upperback -0.549198 1.04515 2.46523
thorax -10.6274 0.968259 6.51823
lowerneck -0.549569 -12.0559 -16.8853
upperneck 9.60366 -17.3245 14.8295
head 5.8293 -8.6247 6.17023
lclavicle -3.85642e-14 -7.95139e-15 0
lhumerus -48.0256 -33.4038 115.373
lradius 96.7603 -0 0
lwrist 53.8685 0 0
lhand -16.7424 45.0942 -0.372417
lfingers 7.12502 -0 0
lthumb 9.47223 74.6902 -0.400137
rclavicle -3.85642e-14 -7.95139e-15 0
rhumerus 14.459 34.4817 -46.9271
rradius 113.633 -0 0
rwrist -31.1874 0 0
rhand 12.5412 -17.4755 -0.061428
rfingers 7.12502 -0 0
rthumb 37.5142 -43.2488 -0.00771833
520
root -5.36879 15.0091 -42.5945 2.31057 -39.9707 -7.00208
lfemur -23.6929 22.141 1.8278
ltibia 66.7022 -0 0
lfoot -19.1266 19.9657 -0.206057
ltoes -13.29 0 0
rfemur -34.5692 -20.3691 4.45571
rtibia 58.5463 -0 0
rfoot -3.511 -1.27067 -0.524169
rtoes -3.66995 0 0
lowerback 17.5999 1.79789 -7.32984
upperback -0.478431 1.08617 2.33548
thorax -10.6575 0.991956 6.4781
lowerneck -0.987904 -11.7813 -16.8673
upperneck 10.1081 -16.8732 14.3593
head 5.92808 -8.3964 6.03007
lclavicle -3.85642e-14 -7.95139e-15 0
lhumerus -50.3638 -30.2899 115.063
lradius 98.0383 -0 0
lwrist 56.0303 0 0
lhand -17.7948 45.7543 -0.302604
lfingers 7.12502 -0 0
lthumb 8.45885 75.4267 -0.325126
rclavicle -3.85642e-14 -7.95139e-15 0
rhumerus 10.0388 33.4506 -49.0113
rradius 114.029 -0 0
rwrist -31.5428 0 0
rhand 13.221 -17.6444 -0.0499282
rfingers 7.12502 -0 0
rthumb 38.1595 -43.2712 -0.00627353
521
root -5.38716 15.0033 -42.6017 1.74054 -42.9033 -6.2687
lfemur -21.7691 20.6871 2.71192
ltibia 66.267 -0 0
lfoot -18.714 19.0463 -0.156453
ltoes -15.1958 0 0
rfemur -35.9549 -20.9233 4.44645
rtibia 58.8204 -0 0
rfoot -4.28414 -0.028909 -0.397813
rtoes -4.63658 0 0
lowerback 17.7571 1.87143 -7.50583
upperback -0.415077 1.12309 2.21922
thorax -10.6844 1.01318 6.44211
lowerneck -1.38036 -11.5351 -16.853
upperneck 10.556 -16.4653 13.9424
head 6.01609 -8.19157 5.90485
lclavicle -3.85642e-14 -7.95139e-15 0
lhumerus -52.4168 -27.5098 114.672
lradius 99.1838 -0 0
lwrist 57.968 0 0
lhand -18.7374 46.3447 -0.229738
lfingers 7.12502 -0 0
lthumb 7.55141 76.0856 -0.246835
rclavicle -3.85642e-14 -7.95139e-15 0
rhumerus 6.1628 32.4168 -50.773
rradius 114.384 -0 0
rwrist -31.8614 0 0
rhand 13.8303 -17.7957 -0.0379179
rfingers 7.12502 -0 0
rthumb 38.7379 -43.2912 -0.00476453
